<svg width="40" height="41" viewBox="0 0 40 41" fill="none" xmlns="http://www.w3.org/2000/svg">
<path d="M12.7952 31.2682C12.1735 31.849 11.83 32.7161 11.8382 33.7058C11.8382 34.6711 12.1735 35.5381 12.7952 36.1189C13.4087 36.6997 14.2431 36.9778 15.1101 36.9778C15.9772 36.9778 16.8116 36.6997 17.4251 36.1189C18.0386 35.5381 18.3821 34.6711 18.3821 33.7058C18.3821 32.7406 18.0468 31.8735 17.4251 31.2927C16.8116 30.712 15.9772 30.4338 15.1101 30.4338C14.2512 30.4338 13.4251 30.6874 12.7952 31.2682ZM16.738 33.7058C16.738 34.3193 16.5498 34.6792 16.2881 34.9328C16.0263 35.1782 15.6337 35.3418 15.102 35.3418C14.5703 35.3418 14.1776 35.1782 13.9159 34.9328C13.6541 34.6792 13.4742 34.3193 13.466 33.7058C13.466 33.0596 13.6541 32.6997 13.9077 32.4625C14.1613 32.2253 14.5539 32.0698 15.102 32.0698C15.6337 32.0698 16.0263 32.2334 16.2881 32.4788C16.5498 32.7324 16.7298 33.0923 16.738 33.7058Z" fill="black"/>
<path d="M24.2472 31.2682C23.6256 31.849 23.282 32.7161 23.2902 33.7058C23.2902 34.6711 23.6256 35.5381 24.2472 36.1189C24.8607 36.6997 25.6951 36.9778 26.5622 36.9778C27.4292 36.9778 28.2636 36.6997 28.8771 36.1189C29.4906 35.5381 29.8342 34.6711 29.8342 33.7058C29.8342 32.7406 29.4988 31.8735 28.8771 31.2927C28.2636 30.712 27.4292 30.4338 26.5622 30.4338C25.7033 30.4338 24.8771 30.6874 24.2472 31.2682ZM28.19 33.7058C28.19 34.3193 28.0019 34.6792 27.7401 34.9328C27.4783 35.1782 27.0857 35.3418 26.554 35.3418C26.0223 35.3418 25.6297 35.1782 25.3679 34.9328C25.1061 34.6792 24.9262 34.3193 24.918 33.7058C24.918 33.0596 25.1061 32.6997 25.3597 32.4625C25.6133 32.2253 26.0059 32.0698 26.554 32.0698C27.0857 32.0698 27.4783 32.2334 27.7401 32.4788C28.0019 32.7324 28.1818 33.0923 28.19 33.7058Z" fill="black"/>
<path d="M12.0098 28.7977H30.4639L34.1449 14.0738H32.2798H28.1898V15.7098H32.0508L29.1878 27.1617H13.2859L10.4229 15.7098H15.9199V14.0738H11.0119H10.0139L8.37793 7.52979H3.6499V9.16578H7.10185L12.0098 28.7977Z" fill="black"/>
<path d="M28.1899 14.074H26.5539H21.1633L25.2533 9.99219H22.9384L18.0386 14.892L22.9466 19.8H25.2533L21.1633 15.71H26.5539H28.1899V14.074Z" fill="black"/>
</svg>
