<svg width="40" height="40" viewBox="0 0 40 40" fill="none" xmlns="http://www.w3.org/2000/svg">
<path d="M13.9752 7.85126H31.1532V30.5507C31.1532 31.3973 30.8096 32.1642 30.2574 32.7225C29.6992 33.2808 28.9384 33.6182 28.0857 33.6182H24.0856C23.8832 33.9188 23.6562 34.201 23.3985 34.4526C23.2636 34.5875 23.1163 34.7225 22.9629 34.8452H28.0795C30.4538 34.8452 32.374 32.9249 32.374 30.5507V22.5752H33.601C33.601 22.5752 33.6133 22.5752 33.6194 22.5752C35.1838 22.5752 36.4476 22.0599 37.282 21.1519C38.1225 20.2439 38.509 19.0047 38.509 17.6672C38.509 16.3298 38.1225 15.0905 37.282 14.1826C36.4476 13.2746 35.1838 12.7593 33.6194 12.7593C33.6133 12.7593 33.6071 12.7593 33.601 12.7593H32.374V6.62427H12.7421V10.3053H13.9691V7.85126H13.9752ZM33.6071 13.9862C34.9323 13.9862 35.8096 14.3912 36.3924 15.0169C36.9753 15.6427 37.2881 16.5507 37.2881 17.6672C37.2881 18.7838 36.9753 19.6918 36.3924 20.3175C35.8096 20.9433 34.9323 21.3421 33.6071 21.3482H32.3801V13.9862H33.6071Z" fill="black"/>
<path d="M6.61298 12.7592H22.5639V30.5507C22.5639 31.3973 22.2204 32.1642 21.6682 32.7225C21.1099 33.2807 20.3492 33.6182 19.4964 33.6182H16.7234C16.521 33.9188 16.294 34.201 16.0363 34.4525C15.9013 34.5875 15.7541 34.7225 15.6007 34.8452H19.4903C21.8646 34.8452 23.7848 32.9249 23.7848 30.5507V26.2562H25.0118C25.0118 26.2562 25.0241 26.2562 25.0302 26.2562C26.5946 26.2562 27.8584 25.7408 28.6928 24.8329C29.5333 23.9249 29.9198 22.6856 29.9198 21.3482C29.9198 20.0108 29.5333 18.7715 28.6928 17.8635C27.8584 16.9556 26.5946 16.4402 25.0302 16.4402H23.7848V11.5322H5.38599V16.4402H6.61298V12.7592ZM25.0179 17.6672C26.3431 17.6672 27.2204 18.0721 27.8032 18.6979C28.386 19.3237 28.6989 20.2316 28.6989 21.3482C28.6989 22.4648 28.386 23.3727 27.8032 23.9985C27.2204 24.6243 26.3431 25.0231 25.0179 25.0292H23.7909V17.6672H25.0179Z" fill="black"/>
<path d="M5.99957 34.8452H12.1345C14.5088 34.8452 16.429 32.9249 16.429 30.5507V28.7102H17.0548C17.2634 28.7102 17.4597 28.6979 17.656 28.6795C18.7297 28.5752 19.6192 28.1887 20.245 27.563C20.9935 26.8268 21.337 25.7961 21.337 24.7102C21.337 23.6182 20.9935 22.5936 20.245 21.8574C19.6131 21.2317 18.7297 20.8452 17.656 20.7409C17.4597 20.7225 17.2634 20.7102 17.0548 20.7102H16.429V17.6672H1.70508V30.5507C1.70508 32.9249 3.62533 34.8452 5.99957 34.8452ZM17.0425 21.9372C17.2634 21.9372 17.4658 21.9495 17.656 21.974C18.4474 22.0722 18.9996 22.3482 19.38 22.7286C19.8524 23.201 20.1039 23.8697 20.11 24.7102C20.11 25.5568 19.8524 26.2255 19.38 26.6918C18.9996 27.0722 18.4413 27.3482 17.656 27.4464C17.4658 27.4709 17.2573 27.4832 17.0425 27.4832H16.429V21.9372H17.0425ZM2.93207 18.8942H15.202V30.5507C15.202 31.3973 14.8585 32.1642 14.3063 32.7225C13.748 33.2808 12.9873 33.6182 12.1345 33.6182H5.99957C5.15294 33.6182 4.38607 33.2746 3.82778 32.7225C3.2695 32.1642 2.93207 31.4035 2.93207 30.5507V18.8942Z" fill="black"/>
</svg>
