<svg width="40" height="40" viewBox="0 0 40 40" fill="none" xmlns="http://www.w3.org/2000/svg">
<path d="M34.7975 22.5752C34.7975 13.0353 28.8833 6.62427 20.0735 6.62427C11.2637 6.62427 5.34956 13.0353 5.34956 22.5752V32.3912H4.12256V33.6182H36.0245V32.3912H34.7975V22.5752ZM33.5705 32.3912H6.57655V22.5752C6.57655 13.6304 11.8772 7.85126 20.0735 7.85126C28.2698 7.85126 33.5705 13.6304 33.5705 22.5752V32.3912Z" fill="black"/>
<path d="M20.687 12.7593H19.46V31.1642H20.687V12.7593Z" fill="black"/>
<path d="M25.6808 14.2994C25.6808 14.2994 27.4354 17.2748 27.4354 20.735V31.1644H28.6624V20.735C28.6624 16.9251 26.8158 13.8024 26.736 13.6736L25.6869 14.3055L25.6808 14.2994Z" fill="black"/>
<path d="M11.4845 20.7347V31.1642H12.7115V20.7347C12.7115 17.2746 14.4477 14.3298 14.4661 14.2991L13.4109 13.6672C13.3311 13.7961 11.4845 16.9249 11.4845 20.7286V20.7347Z" fill="black"/>
</svg>
